<svg width="80" height="64" viewBox="0 0 80 64" fill="none" xmlns="http://www.w3.org/2000/svg">
<path d="M10.485 26.32C4.533 26.32 1.941 23.184 1.941 19.504V19.024H4.213V19.376C4.213 22.352 5.781 24.208 10.549 24.208C14.101 24.208 15.765 23.024 15.765 20.56C15.765 18.16 14.677 17.264 11.445 16.56L7.733 15.728C4.373 15.024 2.069 13.488 2.069 10.032C2.069 6.928 4.629 4.24 9.717 4.24C15.285 4.24 17.717 7.632 17.717 11.12V11.536H15.445V11.184C15.445 8.24 13.909 6.352 9.685 6.352C6.133 6.352 4.373 7.536 4.373 9.872C4.373 12.304 5.557 13.008 8.693 13.744L12.405 14.608C15.957 15.408 18.069 17.072 18.069 20.432C18.069 23.696 15.541 26.32 10.485 26.32ZM24.8845 26.32C22.0045 26.32 19.8285 24.848 19.8285 22.192C19.8285 19.44 21.8765 18.224 25.3325 17.744L30.9005 16.976V15.824C30.9005 13.04 29.7165 11.92 26.7405 11.92C23.8605 11.92 22.5165 13.04 22.5165 15.568V16.048H20.3085V15.792C20.3085 12.496 22.8365 9.872 26.9325 9.872C31.1565 9.872 33.0765 12.592 33.0765 16.112V26H30.9965V23.088L30.8365 23.056C29.9085 24.88 27.8925 26.32 24.8845 26.32ZM22.0685 22.032C22.0685 23.664 23.0925 24.4 25.5245 24.4C28.2445 24.4 30.9005 22.992 30.9005 19.248V18.704L25.5245 19.472C22.9965 19.824 22.0685 20.336 22.0685 22.032ZM38.5797 26H36.2757V4.56H38.5797V26ZM49.2943 26H46.4462L39.9822 10.192H42.4782L47.8223 23.76H47.9823L53.2943 10.192H55.7583L49.2943 26ZM61.0808 26.32C58.2008 26.32 56.0247 24.848 56.0247 22.192C56.0247 19.44 58.0728 18.224 61.5288 17.744L67.0968 16.976V15.824C67.0968 13.04 65.9128 11.92 62.9368 11.92C60.0568 11.92 58.7128 13.04 58.7128 15.568V16.048H56.5048V15.792C56.5048 12.496 59.0328 9.872 63.1288 9.872C67.3528 9.872 69.2728 12.592 69.2728 16.112V26H67.1928V23.088L67.0328 23.056C66.1048 24.88 64.0888 26.32 61.0808 26.32ZM58.2648 22.032C58.2648 23.664 59.2888 24.4 61.7208 24.4C64.4408 24.4 67.0968 22.992 67.0968 19.248V18.704L61.7208 19.472C59.1927 19.824 58.2648 20.336 58.2648 22.032ZM18.6185 58H16.3145V42H18.3945V44.656H18.5545C19.0665 43.184 20.6025 41.872 22.9385 41.872C26.2025 41.872 27.4505 44.208 27.4505 46.928V47.824H25.1465V47.28C25.1465 44.816 24.3785 43.856 22.1065 43.856C19.6425 43.856 18.6185 44.976 18.6185 47.536V58ZM36.5033 58.32C31.8632 58.32 28.8232 54.896 28.8232 50.096C28.8232 45.296 31.8632 41.872 36.5033 41.872C41.1112 41.872 44.0553 45.296 44.0553 50.096C44.0553 54.896 41.1112 58.32 36.5033 58.32ZM36.5033 56.272C40.3112 56.272 41.8153 54.032 41.8153 50.096C41.8153 46.16 40.3112 43.952 36.5033 43.952C32.6312 43.952 31.0952 46.16 31.0952 50.096C31.0952 54.032 32.6312 56.272 36.5033 56.272ZM52.282 58.032C49.37 58.032 47.674 56.88 47.674 53.52V44.176H45.018V42.192H47.706L48.25 38.16H49.978V42.192H54.97V44.176H49.978V53.648C49.978 55.504 50.842 55.92 52.89 55.92H54.97V57.776C54.426 57.872 53.434 58.032 52.282 58.032ZM61.0808 58.32C58.2008 58.32 56.0247 56.848 56.0247 54.192C56.0247 51.44 58.0728 50.224 61.5288 49.744L67.0968 48.976V47.824C67.0968 45.04 65.9128 43.92 62.9368 43.92C60.0568 43.92 58.7128 45.04 58.7128 47.568V48.048H56.5048V47.792C56.5048 44.496 59.0328 41.872 63.1288 41.872C67.3528 41.872 69.2728 44.592 69.2728 48.112V58H67.1928V55.088L67.0328 55.056C66.1048 56.88 64.0888 58.32 61.0808 58.32ZM58.2648 54.032C58.2648 55.664 59.2888 56.4 61.7208 56.4C64.4408 56.4 67.0968 54.992 67.0968 51.248V50.704L61.7208 51.472C59.1927 51.824 58.2648 52.336 58.2648 54.032Z" fill="white"/>
<path d="M76.474 12.754C74.62 12.754 73.594 11.494 73.594 9.874C73.594 8.254 74.62 6.994 76.474 6.994C78.328 6.994 79.354 8.254 79.354 9.874C79.354 11.494 78.328 12.754 76.474 12.754ZM76.474 12.07C77.824 12.07 78.616 11.44 78.616 9.874C78.616 8.308 77.824 7.678 76.474 7.678C75.106 7.678 74.35 8.308 74.35 9.874C74.35 11.44 75.106 12.07 76.474 12.07ZM75.97 11.116H75.394V8.56H76.564C77.284 8.56 77.626 8.83 77.626 9.352C77.626 9.82 77.32 10.072 76.906 10.072V10.108C77.122 10.18 77.23 10.288 77.392 10.576L77.716 11.116H77.05L76.762 10.63C76.582 10.324 76.492 10.216 76.168 10.216H75.97V11.116ZM75.97 9.082V9.748H76.636C76.96 9.748 77.05 9.658 77.05 9.424C77.05 9.154 76.96 9.082 76.636 9.082H75.97Z" fill="white"/>
</svg>
